<svg width="18" height="18" viewBox="0 0 18 18" fill="none" xmlns="http://www.w3.org/2000/svg">
<path d="M7.21571 0.0389767C6.24169 0.23378 5.43464 0.790363 4.93769 1.61729C4.65145 2.09038 4.45267 2.7225 4.45267 3.15982V3.35065L3.72911 3.37053C2.88628 3.39438 2.66365 3.45004 2.21838 3.74821C1.81287 4.01457 1.55048 4.3525 1.39146 4.80969C1.3358 4.96474 1.11714 6.58281 0.655974 10.2761C0.294194 13.1624 0 15.6114 0 15.7148C0 15.993 0.103366 16.3827 0.246487 16.657C0.409487 16.9671 0.826924 17.3845 1.13702 17.5475C1.64192 17.8099 1.25629 17.798 8.1619 17.786L14.4115 17.7741L14.8012 17.6668C16.0694 17.3169 17.0513 16.5059 17.596 15.353C18.2599 13.9456 18.0969 12.2878 17.1706 11.0315C16.9321 10.7055 16.4749 10.2682 16.1409 10.0416C15.8706 9.8587 15.3458 9.60029 15.0794 9.52475C14.9323 9.48102 14.9125 9.45717 14.8926 9.32995C14.8767 9.25043 14.7534 8.25256 14.6103 7.10759C14.4394 5.73998 14.3241 4.95281 14.2724 4.80572C14.0537 4.17757 13.5846 3.7164 12.9445 3.48979C12.6941 3.40233 12.5788 3.38643 11.9427 3.37053L11.2231 3.35065L11.1993 3.0485C11.1277 2.16592 10.6188 1.23563 9.90719 0.69495C9.58914 0.452438 9.02063 0.174147 8.6668 0.0827084C8.309 -0.00475502 7.56556 -0.0286083 7.21571 0.0389767ZM8.49585 0.921558C9.17568 1.09649 9.79587 1.61331 10.1139 2.26929C10.2451 2.53168 10.3763 3.03658 10.3763 3.26319V3.36258H7.83193H5.28754V3.23933C5.28754 3.02067 5.41476 2.55155 5.54596 2.26929C5.90376 1.52983 6.63925 0.985168 7.45425 0.861925C7.73651 0.818193 8.20166 0.846022 8.49585 0.921558ZM4.45267 5.59289V6.94856L4.56796 7.06386C4.75879 7.25071 5.08479 7.21095 5.21996 6.98037C5.27959 6.88098 5.28754 6.71003 5.28754 5.55313V4.23721H7.83193H10.3763V5.55313C10.3763 6.71003 10.3843 6.88098 10.4439 6.98037C10.5791 7.21095 10.9051 7.25071 11.0959 7.06386L11.2112 6.94856V5.59289V4.23721H11.8672C12.4158 4.23721 12.5549 4.24913 12.7219 4.31274C13.0241 4.42804 13.2546 4.63874 13.3938 4.92498C13.5091 5.15955 13.529 5.27484 13.7556 7.09964C13.8868 8.16112 14.006 9.09539 14.018 9.1749L14.0418 9.32597H13.684C12.2011 9.32597 10.7222 10.2324 10.0344 11.5603C9.68853 12.2361 9.54143 12.8285 9.54143 13.556C9.54541 14.7646 9.99068 15.7903 10.8613 16.6212L11.2152 16.9591L6.53191 16.9512L1.84865 16.9392L1.61012 16.8279C1.3199 16.6928 1.13702 16.5218 1.0098 16.2753C0.799095 15.8619 0.771266 16.1799 1.49085 10.4391C2.1349 5.27086 2.1508 5.1675 2.27007 4.92498C2.40524 4.64272 2.63582 4.43201 2.93002 4.31672C3.08904 4.25311 3.23216 4.24118 3.78874 4.23721H4.45267V5.59289ZM14.5904 10.2642C15.1868 10.4153 15.8269 10.793 16.2403 11.2422C16.8446 11.8902 17.1428 12.6456 17.1468 13.5202C17.1547 14.4664 16.8088 15.3092 16.1489 15.9573C15.4213 16.6769 14.4712 17.0108 13.4375 16.9154C12.2329 16.8041 11.2112 16.0765 10.6983 14.9634C10.4996 14.538 10.42 14.212 10.3882 13.719C10.3366 12.7887 10.6626 11.9181 11.3225 11.2263C11.8354 10.6896 12.4476 10.3557 13.1473 10.2205C13.529 10.1489 14.2247 10.1688 14.5904 10.2642Z" fill="white"/>
<path d="M13.4891 11.9658C13.3778 12.0612 13.3778 12.0732 13.358 12.594L13.3381 13.1227L12.8093 13.1426C12.2885 13.1625 12.2766 13.1625 12.1812 13.2738C12.0182 13.4646 12.0659 13.7827 12.2845 13.9099C12.372 13.9616 12.4992 13.9775 12.8769 13.9775H13.358V14.4545C13.358 14.7169 13.3778 14.9714 13.4017 15.027C13.513 15.2656 13.8867 15.3093 14.0775 15.1065C14.165 15.0111 14.1729 14.9714 14.1849 14.4943L14.2008 13.9854L14.7097 13.9695C15.1867 13.9576 15.2265 13.9496 15.3219 13.8622C15.5247 13.6713 15.4809 13.2976 15.2424 13.1863C15.1867 13.1625 14.9323 13.1426 14.6699 13.1426H14.1928V12.6615C14.1928 12.2839 14.1769 12.1566 14.1252 12.0692C13.998 11.8505 13.68 11.8028 13.4891 11.9658Z" fill="white"/>
</svg>
